<svg xmlns="http://www.w3.org/2000/svg" data-background-color="#ffffff" preserveAspectRatio="xMidYMid meet"
     viewBox="0 0 640 400">
    <rect width="640" height="400" x="0" y="0" opacity="1" fill="#ffffff" data-fill-palette-color="background"
          id="background"></rect>
    <g id="tight-bounds" transform="matrix(1,0,0,1,122.24000000000001,76.4)">
        <svg viewBox="0 0 395.52 247.2" height="247.2" width="395.52">
            <g>
                <svg></svg>
            </g>
            <g>
                <svg viewBox="0 0 395.52 247.2" height="247.2" width="395.52">
                    <g transform="matrix(1,0,0,1,75.54432000000001,49.02888827529091)">
                        <svg viewBox="0 0 244.43135999999996 149.14222344941817" height="149.14222344941817"
                             width="244.43135999999996">
                            <g>
                                <svg viewBox="0 0 244.43135999999996 149.14222344941817" height="149.14222344941817"
                                     width="244.43135999999996">
                                    <g>
                                        <svg viewBox="0 0 244.43135999999996 149.14222344941817"
                                             height="149.14222344941817" width="244.43135999999996">
                                            <g>
                                                <svg viewBox="0 0 244.43135999999996 149.14222344941817"
                                                     height="149.14222344941817" width="244.43135999999996">
                                                    <g>
                                                        <svg viewBox="0 0 244.43135999999996 149.14222344941817"
                                                             height="149.14222344941817" width="244.43135999999996">
                                                            <g>
                                                                <svg viewBox="0 0 244.43135999999996 106.27450434782605"
                                                                     height="106.27450434782605"
                                                                     width="244.43135999999996">
                                                                    <g transform="matrix(1,0,0,1,0,0)">
                                                                        <svg width="244.43135999999996"
                                                                             viewBox="4.650000095367432 -35.5 82.79999542236328 36"
                                                                             height="106.27450434782605"
                                                                             data-palette-color="#1e1e1e">
                                                                            <path d="M30.8-9.2L30.8-9.2Q30.8-6.6 29.53-4.53 28.25-2.45 26.08-1.23 23.9 0 21.25 0L21.25 0 4.65 0 4.65-35.5 21.2-35.5Q23.7-35.5 25.53-34.18 27.35-32.85 28.33-30.78 29.3-28.7 29.3-26.45L29.3-26.45Q29.3-23.8 27.95-21.53 26.6-19.25 24.2-18.2L24.2-18.2Q27.25-17.3 29.03-14.83 30.8-12.35 30.8-9.2ZM28.25-9.55L28.25-9.55Q28.25-11.45 27.38-13.1 26.5-14.75 25-15.8 23.5-16.85 21.6-16.85L21.6-16.85 7.2-16.85 7.2-2.3 21.25-2.3Q23.2-2.3 24.8-3.33 26.4-4.35 27.33-6.03 28.25-7.7 28.25-9.55ZM20.5-33.2L7.2-33.2 7.2-19 20.2-19Q22.15-19 23.63-20.03 25.1-21.05 25.95-22.68 26.8-24.3 26.8-26.1L26.8-26.1Q26.8-28.05 26-29.65 25.2-31.25 23.78-32.23 22.35-33.2 20.5-33.2L20.5-33.2ZM34.85-7.5L34.85-7.5Q34.85-9.85 36.25-11.58 37.65-13.3 40.1-14.28 42.55-15.25 45.75-15.25L45.75-15.25Q47.75-15.25 49.9-14.9 52.05-14.55 53.75-13.95L53.75-13.95 53.75-16.4Q53.75-20 51.67-22.15 49.6-24.3 45.95-24.3L45.95-24.3Q44-24.3 41.9-23.5 39.8-22.7 37.6-21.2L37.6-21.2 36.55-23Q39.1-24.7 41.47-25.58 43.85-26.45 46.2-26.45L46.2-26.45Q50.85-26.45 53.55-23.7 56.25-20.95 56.25-16.2L56.25-16.2 56.25-3.3Q56.25-2.7 56.52-2.4 56.8-2.1 57.35-2.05L57.35-2.05 57.35 0Q56.9 0.05 56.6 0.05 56.3 0.05 56.1 0.05L56.1 0.05Q55.15-0.1 54.62-0.75 54.1-1.4 54.05-2.2L54.05-2.2 54.05-4.25Q52.25-2 49.42-0.75 46.6 0.5 43.5 0.5L43.5 0.5Q41.05 0.5 39.07-0.55 37.1-1.6 35.97-3.43 34.85-5.25 34.85-7.5ZM52.75-5.35L52.75-5.35Q53.25-6 53.5-6.6 53.75-7.2 53.75-7.7L53.75-7.7 53.75-12Q51.95-12.7 50-13.05 48.05-13.4 46-13.4L46-13.4Q42.1-13.4 39.67-11.85 37.25-10.3 37.25-7.65L37.25-7.65Q37.25-6 38.1-4.6 38.95-3.2 40.47-2.35 42-1.5 44-1.5L44-1.5Q46.8-1.5 49.17-2.58 51.55-3.65 52.75-5.35ZM74.75 0.5L74.75 0.5Q72 0.5 69.67-0.55 67.35-1.6 65.65-3.48 63.95-5.35 63-7.8 62.05-10.25 62.05-12.95L62.05-12.95Q62.05-15.7 63-18.13 63.95-20.55 65.67-22.43 67.4-24.3 69.72-25.38 72.05-26.45 74.75-26.45L74.75-26.45Q77.45-26.45 79.75-25.38 82.05-24.3 83.8-22.43 85.55-20.55 86.5-18.13 87.45-15.7 87.45-12.95L87.45-12.95Q87.45-10.25 86.5-7.8 85.55-5.35 83.82-3.48 82.1-1.6 79.77-0.55 77.45 0.5 74.75 0.5ZM64.55-12.85L64.55-12.85Q64.55-9.8 65.92-7.28 67.3-4.75 69.6-3.25 71.9-1.75 74.7-1.75L74.7-1.75Q77.5-1.75 79.82-3.28 82.15-4.8 83.52-7.38 84.9-9.95 84.9-13L84.9-13Q84.9-16.05 83.52-18.6 82.15-21.15 79.82-22.68 77.5-24.2 74.75-24.2L74.75-24.2Q71.95-24.2 69.65-22.65 67.35-21.1 65.95-18.55 64.55-16 64.55-12.85Z"
                                                                                  opacity="1"
                                                                                  transform="matrix(1,0,0,1,0,0)"
                                                                                  fill="#1e1e1e"
                                                                                  class="undefined-text-0"
                                                                                  data-fill-palette-color="primary"
                                                                                  id="text-0"></path>
                                                                        </svg>
                                                                    </g>
                                                                </svg>
                                                            </g>
                                                            <g transform="matrix(1,0,0,1,0,131.36336423624343)">
                                                                <svg viewBox="0 0 244.43135999999996 17.778859213174744"
                                                                     height="17.778859213174744"
                                                                     width="244.43135999999996">
                                                                    <g transform="matrix(1,0,0,1,0,0)">
                                                                        <svg width="244.43135999999996"
                                                                             viewBox="3.549999952316284 -40.5 655.7000122070312 47.70000076293945"
                                                                             height="17.778859213174744"
                                                                             data-palette-color="#2f2f2f">
                                                                            <path d="M13.55 0L3.55 0 3.55-40.5 12.25-40.5Q15-40.5 16.9-39.8 18.8-39.1 19.95-37.75 21.1-36.4 21.63-34.52 22.15-32.65 22.15-30.4L22.15-30.4Q22.15-28.45 21.68-26.63 21.2-24.8 20.1-23.53 19-22.25 17-21.85L17-21.85Q19.35-21.2 20.7-19.63 22.05-18.05 22.58-15.98 23.1-13.9 23.1-11.7L23.1-11.7Q23.1-9.3 22.68-7.18 22.25-5.05 21.18-3.45 20.1-1.85 18.25-0.93 16.4 0 13.55 0L13.55 0ZM7.35-20.1L7.35-2.85 12.8-2.85Q16.75-2.85 18.07-5 19.4-7.15 19.4-11.7L19.4-11.7Q19.4-14.15 18.8-16.05 18.2-17.95 16.78-19.03 15.35-20.1 12.9-20.1L12.9-20.1 7.35-20.1ZM7.35-37.55L7.35-23.05 12.85-23.05Q15.2-23.05 16.45-23.98 17.7-24.9 18.2-26.53 18.7-28.15 18.7-30.4L18.7-30.4Q18.7-32.85 18.03-34.45 17.35-36.05 15.7-36.8 14.05-37.55 10.95-37.55L10.95-37.55 7.35-37.55ZM31.95 0L28.3 0 28.3-28.9 31.95-28.9 31.95 0ZM31.95-32.9L28.3-32.9 28.3-37.85 31.95-37.85 31.95-32.9ZM44.95 0.35L44.95 0.35Q42.84 0.35 41.72-0.48 40.59-1.3 40.17-2.73 39.75-4.15 39.75-6L39.75-6 39.75-26.5 36.2-26.5 36.2-28.9 39.75-28.9 39.75-37.85 43.4-37.85 43.4-28.9 48.2-28.9 48.2-26.5 43.4-26.5 43.4-6.35Q43.4-4.25 43.87-3.38 44.34-2.5 45.95-2.5L45.95-2.5Q46.4-2.5 46.97-2.58 47.55-2.65 48.05-2.75L48.05-2.75 48.05 0.05Q47.3 0.2 46.5 0.28 45.7 0.35 44.95 0.35ZM59.34 0.45L59.34 0.45Q56.64 0.45 54.92-0.63 53.19-1.7 52.37-4.2 51.54-6.7 51.54-10.85L51.54-10.85 51.54-18.15Q51.54-22.45 52.39-24.88 53.24-27.3 54.99-28.33 56.74-29.35 59.39-29.35L59.39-29.35Q62.44-29.35 64.04-28.05 65.64-26.75 66.27-24.13 66.89-21.5 66.89-17.4L66.89-17.4 66.89-14.8 55.19-14.8 55.19-9.75Q55.19-6.95 55.62-5.33 56.04-3.7 56.97-3 57.89-2.3 59.34-2.3L59.34-2.3Q60.44-2.3 61.34-2.73 62.24-3.15 62.77-4.38 63.29-5.6 63.29-7.85L63.29-7.85 63.29-9.85 66.84-9.85 66.84-8.25Q66.84-4.3 65.22-1.93 63.59 0.45 59.34 0.45ZM55.19-18.85L55.19-16.9 63.29-16.9 63.29-19.3Q63.29-21.6 63.04-23.23 62.79-24.85 61.97-25.73 61.14-26.6 59.34-26.6L59.34-26.6Q57.84-26.6 56.92-25.95 55.99-25.3 55.59-23.63 55.19-21.95 55.19-18.85L55.19-18.85ZM86.09 0L82.44 0 82.44-28.9 86.09-28.9 86.09 0ZM86.09-32.9L82.44-32.9 82.44-37.85 86.09-37.85 86.09-32.9ZM95.89 0L92.24 0 92.24-28.9 95.89-28.9 95.89-25.9Q97.29-27.4 99.04-28.38 100.79-29.35 102.84-29.35L102.84-29.35Q104.29-29.35 105.29-28.63 106.29-27.9 106.79-26.53 107.29-25.15 107.29-23.2L107.29-23.2 107.29 0 103.64 0 103.64-22.4Q103.64-24.65 102.96-25.58 102.29-26.5 100.89-26.5L100.89-26.5Q99.64-26.5 98.34-25.75 97.04-25 95.89-23.8L95.89-23.8 95.89 0ZM119.53 0.35L119.53 0.35Q117.43 0.35 116.31-0.48 115.18-1.3 114.76-2.73 114.33-4.15 114.33-6L114.33-6 114.33-26.5 110.78-26.5 110.78-28.9 114.33-28.9 114.33-37.85 117.98-37.85 117.98-28.9 122.78-28.9 122.78-26.5 117.98-26.5 117.98-6.35Q117.98-4.25 118.46-3.38 118.93-2.5 120.53-2.5L120.53-2.5Q120.98-2.5 121.56-2.58 122.13-2.65 122.63-2.75L122.63-2.75 122.63 0.05Q121.88 0.2 121.08 0.28 120.28 0.35 119.53 0.35ZM133.83 0.45L133.83 0.45Q130.88 0.45 129.21-0.83 127.53-2.1 126.83-4.53 126.13-6.95 126.13-10.45L126.13-10.45 126.13-18.45Q126.13-21.95 126.83-24.38 127.53-26.8 129.21-28.08 130.88-29.35 133.83-29.35L133.83-29.35Q136.88-29.35 138.53-28.08 140.18-26.8 140.88-24.38 141.58-21.95 141.58-18.45L141.58-18.45 141.58-10.45Q141.58-6.95 140.88-4.53 140.18-2.1 138.53-0.83 136.88 0.45 133.83 0.45ZM133.83-2.3L133.83-2.3Q135.73-2.3 136.61-3.3 137.48-4.3 137.68-6.13 137.88-7.95 137.88-10.25L137.88-10.25 137.88-18.65Q137.88-21 137.68-22.78 137.48-24.55 136.61-25.58 135.73-26.6 133.83-26.6L133.83-26.6Q131.93-26.6 131.08-25.58 130.23-24.55 130.03-22.78 129.83-21 129.83-18.65L129.83-18.65 129.83-10.25Q129.83-7.95 130.03-6.13 130.23-4.3 131.08-3.3 131.93-2.3 133.83-2.3ZM163.68 0.35L163.68 0.35Q161.58 0.35 160.45-0.48 159.33-1.3 158.9-2.73 158.48-4.15 158.48-6L158.48-6 158.48-26.5 154.93-26.5 154.93-28.9 158.48-28.9 158.48-37.85 162.13-37.85 162.13-28.9 166.93-28.9 166.93-26.5 162.13-26.5 162.13-6.35Q162.13-4.25 162.6-3.38 163.08-2.5 164.68-2.5L164.68-2.5Q165.13-2.5 165.7-2.58 166.28-2.65 166.78-2.75L166.78-2.75 166.78 0.05Q166.03 0.2 165.23 0.28 164.43 0.35 163.68 0.35ZM174.52 0L170.87 0 170.87-40.5 174.52-40.5 174.52-25.85Q175.97-27.4 177.72-28.38 179.47-29.35 181.57-29.35L181.57-29.35Q183.02-29.35 184-28.63 184.97-27.9 185.5-26.53 186.02-25.15 186.02-23.2L186.02-23.2 186.02 0 182.32 0 182.32-22.4Q182.32-24.65 181.65-25.58 180.97-26.5 179.57-26.5L179.57-26.5Q178.32-26.5 177-25.73 175.67-24.95 174.52-23.75L174.52-23.75 174.52 0ZM198.67 0.45L198.67 0.45Q195.97 0.45 194.25-0.63 192.52-1.7 191.7-4.2 190.87-6.7 190.87-10.85L190.87-10.85 190.87-18.15Q190.87-22.45 191.72-24.88 192.57-27.3 194.32-28.33 196.07-29.35 198.72-29.35L198.72-29.35Q201.77-29.35 203.37-28.05 204.97-26.75 205.6-24.13 206.22-21.5 206.22-17.4L206.22-17.4 206.22-14.8 194.52-14.8 194.52-9.75Q194.52-6.95 194.95-5.33 195.37-3.7 196.3-3 197.22-2.3 198.67-2.3L198.67-2.3Q199.77-2.3 200.67-2.73 201.57-3.15 202.1-4.38 202.62-5.6 202.62-7.85L202.62-7.85 202.62-9.85 206.17-9.85 206.17-8.25Q206.17-4.3 204.55-1.93 202.92 0.45 198.67 0.45ZM194.52-18.85L194.52-16.9 202.62-16.9 202.62-19.3Q202.62-21.6 202.37-23.23 202.12-24.85 201.3-25.73 200.47-26.6 198.67-26.6L198.67-26.6Q197.17-26.6 196.25-25.95 195.32-25.3 194.92-23.63 194.52-21.95 194.52-18.85L194.52-18.85ZM232.12 0L222.12 0 222.12-40.5 230.82-40.5Q233.57-40.5 235.47-39.8 237.37-39.1 238.52-37.75 239.67-36.4 240.19-34.52 240.72-32.65 240.72-30.4L240.72-30.4Q240.72-28.45 240.24-26.63 239.77-24.8 238.67-23.53 237.57-22.25 235.57-21.85L235.57-21.85Q237.92-21.2 239.27-19.63 240.62-18.05 241.14-15.98 241.67-13.9 241.67-11.7L241.67-11.7Q241.67-9.3 241.24-7.18 240.82-5.05 239.74-3.45 238.67-1.85 236.82-0.93 234.97 0 232.12 0L232.12 0ZM225.92-20.1L225.92-2.85 231.37-2.85Q235.32-2.85 236.64-5 237.97-7.15 237.97-11.7L237.97-11.7Q237.97-14.15 237.37-16.05 236.77-17.95 235.34-19.03 233.92-20.1 231.47-20.1L231.47-20.1 225.92-20.1ZM225.92-37.55L225.92-23.05 231.42-23.05Q233.77-23.05 235.02-23.98 236.27-24.9 236.77-26.53 237.27-28.15 237.27-30.4L237.27-30.4Q237.27-32.85 236.59-34.45 235.92-36.05 234.27-36.8 232.62-37.55 229.52-37.55L229.52-37.55 225.92-37.55ZM253.71 0.45L253.71 0.45Q251.01 0.45 249.29-0.63 247.56-1.7 246.74-4.2 245.91-6.7 245.91-10.85L245.91-10.85 245.91-18.15Q245.91-22.45 246.76-24.88 247.61-27.3 249.36-28.33 251.11-29.35 253.76-29.35L253.76-29.35Q256.81-29.35 258.41-28.05 260.01-26.75 260.64-24.13 261.26-21.5 261.26-17.4L261.26-17.4 261.26-14.8 249.56-14.8 249.56-9.75Q249.56-6.95 249.99-5.33 250.41-3.7 251.34-3 252.26-2.3 253.71-2.3L253.71-2.3Q254.81-2.3 255.71-2.73 256.61-3.15 257.14-4.38 257.66-5.6 257.66-7.85L257.66-7.85 257.66-9.85 261.21-9.85 261.21-8.25Q261.21-4.3 259.59-1.93 257.96 0.45 253.71 0.45ZM249.56-18.85L249.56-16.9 257.66-16.9 257.66-19.3Q257.66-21.6 257.41-23.23 257.16-24.85 256.34-25.73 255.51-26.6 253.71-26.6L253.71-26.6Q252.21-26.6 251.29-25.95 250.36-25.3 249.96-23.63 249.56-21.95 249.56-18.85L249.56-18.85ZM272.81 0.45L272.81 0.45Q269.36 0.45 267.31-1.78 265.26-4 264.96-7.75L264.96-7.75 268.01-8.7Q268.31-5.35 269.56-3.83 270.81-2.3 273.06-2.3L273.06-2.3Q274.96-2.3 275.99-3.38 277.01-4.45 277.01-6.4L277.01-6.4Q277.01-7.8 276.16-9.22 275.31-10.65 273.51-12.2L273.51-12.2 269.56-15.6Q267.61-17.25 266.61-18.9 265.61-20.55 265.61-22.85L265.61-22.85Q265.61-24.95 266.49-26.38 267.36-27.8 268.91-28.58 270.46-29.35 272.51-29.35L272.51-29.35Q275.81-29.35 277.51-27.23 279.21-25.1 279.36-21.75L279.36-21.75 276.76-20.9Q276.66-22.85 276.16-24.13 275.66-25.4 274.79-26 273.91-26.6 272.66-26.6L272.66-26.6Q271.01-26.6 269.99-25.68 268.96-24.75 268.96-23.1L268.96-23.1Q268.96-21.8 269.46-20.8 269.96-19.8 271.31-18.55L271.31-18.55 275.41-14.9Q276.61-13.85 277.71-12.65 278.81-11.45 279.51-9.98 280.21-8.5 280.21-6.5L280.21-6.5Q280.21-4.25 279.29-2.73 278.36-1.2 276.71-0.38 275.06 0.45 272.81 0.45ZM291.21 0.35L291.21 0.35Q289.11 0.35 287.98-0.48 286.86-1.3 286.43-2.73 286.01-4.15 286.01-6L286.01-6 286.01-26.5 282.46-26.5 282.46-28.9 286.01-28.9 286.01-37.85 289.66-37.85 289.66-28.9 294.46-28.9 294.46-26.5 289.66-26.5 289.66-6.35Q289.66-4.25 290.13-3.38 290.61-2.5 292.21-2.5L292.21-2.5Q292.66-2.5 293.23-2.58 293.81-2.65 294.31-2.75L294.31-2.75 294.31 0.05Q293.56 0.2 292.76 0.28 291.96 0.35 291.21 0.35ZM302.91-21.15L299-21.15 299-26.5 302.91-26.5 302.91-21.15ZM302.91-4.2L299-4.2 299-9.5 302.91-9.5 302.91-4.2ZM325.35 0L321.65 0 316.95-28.9 320.1-28.9 323.7-4.75 328.25-28.9 331.4-28.9 336-4.85 339.45-28.9 342.6-28.9 337.9 0 334.5 0 329.85-23.5 325.35 0ZM350.6 0L346.95 0 346.95-40.5 350.6-40.5 350.6-25.85Q352.05-27.4 353.8-28.38 355.55-29.35 357.65-29.35L357.65-29.35Q359.1-29.35 360.07-28.63 361.05-27.9 361.57-26.53 362.1-25.15 362.1-23.2L362.1-23.2 362.1 0 358.4 0 358.4-22.4Q358.4-24.65 357.72-25.58 357.05-26.5 355.65-26.5L355.65-26.5Q354.4-26.5 353.07-25.73 351.75-24.95 350.6-23.75L350.6-23.75 350.6 0ZM374.75 0.45L374.75 0.45Q372.05 0.45 370.32-0.63 368.59-1.7 367.77-4.2 366.94-6.7 366.94-10.85L366.94-10.85 366.94-18.15Q366.94-22.45 367.8-24.88 368.64-27.3 370.39-28.33 372.14-29.35 374.8-29.35L374.8-29.35Q377.84-29.35 379.44-28.05 381.05-26.75 381.67-24.13 382.3-21.5 382.3-17.4L382.3-17.4 382.3-14.8 370.59-14.8 370.59-9.75Q370.59-6.95 371.02-5.33 371.44-3.7 372.37-3 373.3-2.3 374.75-2.3L374.75-2.3Q375.84-2.3 376.75-2.73 377.64-3.15 378.17-4.38 378.69-5.6 378.69-7.85L378.69-7.85 378.69-9.85 382.25-9.85 382.25-8.25Q382.25-4.3 380.62-1.93 379 0.45 374.75 0.45ZM370.59-18.85L370.59-16.9 378.69-16.9 378.69-19.3Q378.69-21.6 378.44-23.23 378.19-24.85 377.37-25.73 376.55-26.6 374.75-26.6L374.75-26.6Q373.25-26.6 372.32-25.95 371.39-25.3 371-23.63 370.59-21.95 370.59-18.85L370.59-18.85ZM391.19 0L387.49 0 387.49-28.9 391.19-28.9 391.19-24.95Q392.59-27.25 394.39-28.23 396.19-29.2 397.84-29.2L397.84-29.2Q397.99-29.2 398.14-29.2 398.29-29.2 398.49-29.15L398.49-29.15 398.49-25.25Q398.14-25.4 397.64-25.48 397.14-25.55 396.69-25.55L396.69-25.55Q394.99-25.55 393.62-24.75 392.24-23.95 391.19-22.2L391.19-22.2 391.19 0ZM409.24 0.45L409.24 0.45Q406.54 0.45 404.81-0.63 403.09-1.7 402.26-4.2 401.44-6.7 401.44-10.85L401.44-10.85 401.44-18.15Q401.44-22.45 402.29-24.88 403.14-27.3 404.89-28.33 406.64-29.35 409.29-29.35L409.29-29.35Q412.34-29.35 413.94-28.05 415.54-26.75 416.17-24.13 416.79-21.5 416.79-17.4L416.79-17.4 416.79-14.8 405.09-14.8 405.09-9.75Q405.09-6.95 405.51-5.33 405.94-3.7 406.87-3 407.79-2.3 409.24-2.3L409.24-2.3Q410.34-2.3 411.24-2.73 412.14-3.15 412.67-4.38 413.19-5.6 413.19-7.85L413.19-7.85 413.19-9.85 416.74-9.85 416.74-8.25Q416.74-4.3 415.12-1.93 413.49 0.45 409.24 0.45ZM405.09-18.85L405.09-16.9 413.19-16.9 413.19-19.3Q413.19-21.6 412.94-23.23 412.69-24.85 411.87-25.73 411.04-26.6 409.24-26.6L409.24-26.6Q407.74-26.6 406.81-25.95 405.89-25.3 405.49-23.63 405.09-21.95 405.09-18.85L405.09-18.85ZM439.19 0.45L439.19 0.45Q436.49 0.45 434.76-0.63 433.03-1.7 432.21-4.2 431.38-6.7 431.38-10.85L431.38-10.85 431.38-18.15Q431.38-22.45 432.24-24.88 433.08-27.3 434.83-28.33 436.58-29.35 439.24-29.35L439.24-29.35Q442.28-29.35 443.88-28.05 445.49-26.75 446.11-24.13 446.74-21.5 446.74-17.4L446.74-17.4 446.74-14.8 435.03-14.8 435.03-9.75Q435.03-6.95 435.46-5.33 435.88-3.7 436.81-3 437.74-2.3 439.19-2.3L439.19-2.3Q440.28-2.3 441.19-2.73 442.08-3.15 442.61-4.38 443.13-5.6 443.13-7.85L443.13-7.85 443.13-9.85 446.69-9.85 446.69-8.25Q446.69-4.3 445.06-1.93 443.44 0.45 439.19 0.45ZM435.03-18.85L435.03-16.9 443.13-16.9 443.13-19.3Q443.13-21.6 442.88-23.23 442.63-24.85 441.81-25.73 440.99-26.6 439.19-26.6L439.19-26.6Q437.69-26.6 436.76-25.95 435.83-25.3 435.44-23.63 435.03-21.95 435.03-18.85L435.03-18.85ZM460.33 0L456.03 0 449.78-28.9 453.48-28.9 458.18-4.2 462.83-28.9 466.38-28.9 460.33 0ZM477.33 0.45L477.33 0.45Q474.63 0.45 472.9-0.63 471.18-1.7 470.35-4.2 469.53-6.7 469.53-10.85L469.53-10.85 469.53-18.15Q469.53-22.45 470.38-24.88 471.23-27.3 472.98-28.33 474.73-29.35 477.38-29.35L477.38-29.35Q480.43-29.35 482.03-28.05 483.63-26.75 484.25-24.13 484.88-21.5 484.88-17.4L484.88-17.4 484.88-14.8 473.18-14.8 473.18-9.75Q473.18-6.95 473.6-5.33 474.03-3.7 474.95-3 475.88-2.3 477.33-2.3L477.33-2.3Q478.43-2.3 479.33-2.73 480.23-3.15 480.75-4.38 481.28-5.6 481.28-7.85L481.28-7.85 481.28-9.85 484.83-9.85 484.83-8.25Q484.83-4.3 483.2-1.93 481.58 0.45 477.33 0.45ZM473.18-18.85L473.18-16.9 481.28-16.9 481.28-19.3Q481.28-21.6 481.03-23.23 480.78-24.85 479.95-25.73 479.13-26.6 477.33-26.6L477.33-26.6Q475.83-26.6 474.9-25.95 473.98-25.3 473.58-23.63 473.18-21.95 473.18-18.85L473.18-18.85ZM493.78 0L490.08 0 490.08-28.9 493.78-28.9 493.78-24.95Q495.18-27.25 496.98-28.23 498.78-29.2 500.43-29.2L500.43-29.2Q500.58-29.2 500.73-29.2 500.88-29.2 501.08-29.15L501.08-29.15 501.08-25.25Q500.73-25.4 500.23-25.48 499.73-25.55 499.28-25.55L499.28-25.55Q497.58-25.55 496.2-24.75 494.83-23.95 493.78-22.2L493.78-22.2 493.78 0ZM504.82 7.2L503.88 7.2 503.88 4.35Q506.38 4.35 507.65 3.98 508.93 3.6 509.35 2.93 509.77 2.25 509.77 1.35L509.77 1.35Q509.77 0.55 509.48-0.75 509.18-2.05 508.82-3.45L508.82-3.45 502.88-28.9 506.52-28.9 511.52-4.3 516.38-28.9 520.08-28.9 513.08 2.05Q512.67 3.9 511.65 5.03 510.63 6.15 508.95 6.68 507.27 7.2 504.82 7.2L504.82 7.2ZM542.77 0.45L542.77 0.45Q541.02 0.45 539.74-0.45 538.47-1.35 537.62-2.3L537.62-2.3 537.62 0 533.97 0 533.97-40.5 537.62-40.5 537.62-26.5Q538.47-27.6 539.82-28.48 541.17-29.35 543.12-29.35L543.12-29.35Q545.22-29.35 546.52-28.38 547.82-27.4 548.52-25.75 549.22-24.1 549.47-22.05 549.72-20 549.72-17.85L549.72-17.85 549.72-11.75Q549.72-8.05 549.09-5.33 548.47-2.6 546.97-1.07 545.47 0.45 542.77 0.45ZM542.12-2.45L542.12-2.45Q543.82-2.45 544.64-3.5 545.47-4.55 545.74-6.63 546.02-8.7 546.02-11.65L546.02-11.65 546.02-17.85Q546.02-20.65 545.74-22.58 545.47-24.5 544.64-25.5 543.82-26.5 542.07-26.5L542.07-26.5Q540.72-26.5 539.54-25.75 538.37-25 537.62-24.25L537.62-24.25 537.62-4.55Q538.42-3.7 539.57-3.08 540.72-2.45 542.12-2.45ZM558.97 0.45L558.97 0.45Q557.52 0.45 556.52-0.3 555.52-1.05 554.99-2.4 554.47-3.75 554.47-5.7L554.47-5.7 554.47-28.9 558.17-28.9 558.17-6.5Q558.17-4.25 558.84-3.35 559.52-2.45 560.92-2.45L560.92-2.45Q562.22-2.45 563.54-3.25 564.87-4.05 566.02-5.3L566.02-5.3 566.02-28.9 569.67-28.9 569.67 0 566.02 0 566.02-3.2Q564.62-1.6 562.82-0.58 561.02 0.45 558.97 0.45ZM578.96 0L575.31 0 575.31-28.9 578.96-28.9 578.96-25.9Q580.36-27.4 582.11-28.38 583.86-29.35 585.91-29.35L585.91-29.35Q587.36-29.35 588.36-28.63 589.36-27.9 589.86-26.53 590.36-25.15 590.36-23.2L590.36-23.2 590.36 0 586.71 0 586.71-22.4Q586.71-24.65 586.04-25.58 585.36-26.5 583.96-26.5L583.96-26.5Q582.71-26.5 581.41-25.75 580.11-25 578.96-23.8L578.96-23.8 578.96 0ZM610.01 0L606.36 0 606.36-28.9 610.01-28.9 610.01 0ZM610.01-32.9L606.36-32.9 606.36-37.85 610.01-37.85 610.01-32.9ZM622.76 0.45L622.76 0.45Q619.31 0.45 617.26-1.78 615.21-4 614.91-7.75L614.91-7.75 617.96-8.7Q618.26-5.35 619.51-3.83 620.76-2.3 623.01-2.3L623.01-2.3Q624.91-2.3 625.93-3.38 626.96-4.45 626.96-6.4L626.96-6.4Q626.96-7.8 626.11-9.22 625.26-10.65 623.46-12.2L623.46-12.2 619.51-15.6Q617.56-17.25 616.56-18.9 615.56-20.55 615.56-22.85L615.56-22.85Q615.56-24.95 616.43-26.38 617.31-27.8 618.86-28.58 620.41-29.35 622.46-29.35L622.46-29.35Q625.76-29.35 627.46-27.23 629.16-25.1 629.31-21.75L629.31-21.75 626.71-20.9Q626.61-22.85 626.11-24.13 625.61-25.4 624.73-26 623.86-26.6 622.61-26.6L622.61-26.6Q620.96-26.6 619.93-25.68 618.91-24.75 618.91-23.1L618.91-23.1Q618.91-21.8 619.41-20.8 619.91-19.8 621.26-18.55L621.26-18.55 625.36-14.9Q626.56-13.85 627.66-12.65 628.76-11.45 629.46-9.98 630.16-8.5 630.16-6.5L630.16-6.5Q630.16-4.25 629.23-2.73 628.31-1.2 626.66-0.38 625.01 0.45 622.76 0.45ZM649.5 0.45L649.5 0.45Q647.75 0.45 646.45-0.43 645.15-1.3 644.43-2.78 643.7-4.25 643.7-6L643.7-6Q643.7-8.2 644.33-9.75 644.95-11.3 646.33-12.53 647.7-13.75 649.93-14.93 652.15-16.1 655.35-17.55L655.35-17.55 655.35-19.6Q655.35-22.25 655.03-23.78 654.7-25.3 653.93-25.95 653.15-26.6 651.75-26.6L651.75-26.6Q650.6-26.6 649.7-26.15 648.8-25.7 648.25-24.63 647.7-23.55 647.7-21.65L647.7-21.65 647.7-20.65 644.1-20.7Q644.15-25.1 645.98-27.23 647.8-29.35 651.95-29.35L651.95-29.35Q655.85-29.35 657.43-27.03 659-24.7 659-19.8L659-19.8 659-5.75Q659-5 659.05-3.83 659.1-2.65 659.15-1.6 659.2-0.55 659.25 0L659.25 0 656 0Q655.9-0.95 655.7-2.13 655.5-3.3 655.45-4L655.45-4Q654.85-2.25 653.33-0.9 651.8 0.45 649.5 0.45ZM650.65-2.65L650.65-2.65Q651.75-2.65 652.65-3.2 653.55-3.75 654.25-4.53 654.95-5.3 655.35-6.1L655.35-6.1 655.35-15.1Q653.2-14 651.68-13.1 650.15-12.2 649.2-11.35 648.25-10.5 647.8-9.43 647.35-8.35 647.35-6.9L647.35-6.9Q647.35-4.6 648.35-3.63 649.35-2.65 650.65-2.65Z"
                                                                                  opacity="1"
                                                                                  transform="matrix(1,0,0,1,0,0)"
                                                                                  fill="#2f2f2f"
                                                                                  class="undefined-text-1"
                                                                                  data-fill-palette-color="secondary"
                                                                                  id="text-1"></path>
                                                                        </svg>
                                                                    </g>
                                                                </svg>
                                                            </g>
                                                        </svg>
                                                    </g>
                                                </svg>
                                            </g>
                                        </svg>
                                    </g>
                                </svg>
                            </g>
                        </svg>
                    </g>
                    <g>
                        <path d="M245.816 0c68.262 0 123.6 55.338 123.6 123.6 0 68.262-55.338 123.6-123.6 123.6-34.275 0-65.291-13.951-87.681-36.484h6.895c21.199 19.668 49.588 31.692 80.786 31.692 65.616 0 118.808-53.192 118.808-118.808 0-65.616-53.192-118.808-118.808-118.808-31.198 0-59.587 12.025-80.786 31.692l-6.895 0c22.389-22.533 53.406-36.484 87.681-36.484z"
                              fill="#cc0000" stroke="transparent" data-fill-palette-color="tertiary"></path>
                    </g>
                </svg>
            </g>
            <defs></defs>
        </svg>
        <rect width="395.52" height="247.2" fill="none" stroke="none" visibility="hidden"></rect>
    </g>
</svg>
